# xmcd CD database file
#
# Track frame offsets:
#	150
#	13406
#	25649
#	44691
#	57081
#	72130
#	85144
#	102080
#	120473
#	135163
#	155796
#	168292
#	186541
#	199695
#	206948
#	217915
#
# Disc length: 3077 seconds
#
# Revision: 0
# Processed by: cddbd v1.5.1PL0 Copyright (c) Steve Scherf et al.
# Submitted via: CDex 1.51
#
DISCID=df0c0310
DTITLE=Various Artist - 1105 Hope Street
DYEAR=2005
DGENRE=Country
TTITLE0=John Steed/Grace Again
TTITLE1=Susie Luchsinger/Give Love An Inch
TTITLE2=Mike Manuel/Got My Name In The Big Book
TTITLE3=Mike Vaughn/Plant The Seed
TTITLE4=Melanie Walker/Until We Know
TTITLE5=Walt Mills/When The Tribulation Enters
TTITLE6=Gayla Earlene/I.O.U.
TTITLE7=Paul Mill/He's Going To Answer Prayer
TTITLE8=Glorya Wilson/Oh Lord I Need A Savior Too
TTITLE9=Jerry Jones/Calvary
TTITLE10=Jerry Sue Baken/I Will Never Thirst Again
TTITLE11=David Brown/Amazing Grace Is Still At Number One
TTITLE12=Micki Farington/Lock Me In Your Love
TTITLE13=Paula Borden/Oh Hallelujah
TTITLE14=Jo-el Curtis/Saved
TTITLE15=Vicky Vaughan/I'm So Glad
EXTD=YEAR: 2005
EXTT0=
EXTT1=
EXTT2=
EXTT3=
EXTT4=
EXTT5=
EXTT6=
EXTT7=
EXTT8=
EXTT9=
EXTT10=
EXTT11=
EXTT12=
EXTT13=
EXTT14=
EXTT15=
PLAYORDER=
